<svg width="21" height="22" viewBox="0 0 21 22" fill="none" xmlns="http://www.w3.org/2000/svg">
<path d="M6 7.25V5.75C6 4.55653 6.47411 3.41193 7.31802 2.56802C8.16193 1.72411 9.30653 1.25 10.5 1.25C11.6935 1.25 12.8381 1.72411 13.682 2.56802C14.5259 3.41193 15 4.55653 15 5.75V7.25M2.25 7.25C2.05109 7.25 1.86032 7.32902 1.71967 7.46967C1.57902 7.61032 1.5 7.80109 1.5 8V18.125C1.5 19.5425 2.7075 20.75 4.125 20.75H16.875C18.2925 20.75 19.5 19.6011 19.5 18.1836V8C19.5 7.80109 19.421 7.61032 19.2803 7.46967C19.1397 7.32902 18.9489 7.25 18.75 7.25H2.25Z" stroke="white" stroke-width="2" stroke-linecap="round" stroke-linejoin="round"/>
</svg>
