<svg width="40" height="41" viewBox="0 0 40 41" fill="none" xmlns="http://www.w3.org/2000/svg">
<path d="M28.3333 33.8334C30.1743 33.8334 31.6667 32.341 31.6667 30.5C31.6667 28.6591 30.1743 27.1667 28.3333 27.1667C26.4924 27.1667 25 28.6591 25 30.5C25 32.341 26.4924 33.8334 28.3333 33.8334Z" stroke="#004956" stroke-width="1.5" stroke-linecap="round" stroke-linejoin="round"/>
<path d="M11.6668 33.8334C13.5078 33.8334 15.0002 32.341 15.0002 30.5C15.0002 28.6591 13.5078 27.1667 11.6668 27.1667C9.82588 27.1667 8.3335 28.6591 8.3335 30.5C8.3335 32.341 9.82588 33.8334 11.6668 33.8334Z" stroke="#004956" stroke-width="1.5" stroke-linecap="round" stroke-linejoin="round"/>
<path d="M8.3335 30.4533C6.50516 30.3633 5.36683 30.0917 4.5535 29.28C3.74016 28.4683 3.47016 27.3283 3.38016 25.5M15.0002 30.5H25.0002M31.6668 30.4533C33.4952 30.3633 34.6335 30.0917 35.4468 29.28C36.6668 28.0583 36.6668 26.095 36.6668 22.1667V18.8333H28.8335C27.5918 18.8333 26.9718 18.8333 26.4702 18.67C25.9699 18.5074 25.5152 18.2288 25.1433 17.8569C24.7714 17.4849 24.4927 17.0303 24.3302 16.53C24.1668 16.0283 24.1668 15.4083 24.1668 14.1667C24.1668 12.305 24.1668 11.375 23.9218 10.6217C23.678 9.8713 23.26 9.18928 22.7021 8.63137C22.1442 8.07347 21.4622 7.65551 20.7118 7.41167C19.9585 7.16667 19.0285 7.16667 17.1668 7.16667H3.3335M3.3335 13.8333H13.3335M3.3335 18.8333H10.0002" stroke="#004956" stroke-width="1.5" stroke-linecap="round" stroke-linejoin="round"/>
<path d="M24.167 10.5H27.202C29.6287 10.5 30.8403 10.5 31.827 11.09C32.8153 11.6783 33.3903 12.7467 34.5403 14.8833L36.667 18.8333" stroke="#004956" stroke-width="1.5" stroke-linecap="round" stroke-linejoin="round"/>
</svg>
