<svg width="32" height="32" viewBox="0 0 32 32" fill="none" xmlns="http://www.w3.org/2000/svg">
<path d="M19.2586 27.7381L29.5 25.8968L28.569 28.6587L18.3276 30.5L19.2586 27.7381Z" fill="#003741"/>
<path d="M28.1034 22.6746L29.5 18.9921L21.5862 20.8333V17.1508L28.569 15.7698L29.5 12.5476L21.5862 14.3889V2.88095L18.3276 5.64286V14.8492L15.069 15.7698V1.5L11.8103 4.2619V16.6905L4.82759 18.0714L3.89655 21.754L11.8103 19.9127V24.0556L3.43103 25.8968L2.5 28.6587L10.4138 27.2778C12.6483 26.9095 13.2069 25.8968 13.2069 25.8968L15.069 23.5952V18.9921L18.3276 18.5317V24.5159L28.1034 22.6746Z" fill="#003741"/>
<path d="M19.2586 27.7381L29.5 25.8968L28.569 28.6587L18.3276 30.5L19.2586 27.7381Z" stroke="#003741"/>
<path d="M28.1034 22.6746L29.5 18.9921L21.5862 20.8333V17.1508L28.569 15.7698L29.5 12.5476L21.5862 14.3889V2.88095L18.3276 5.64286V14.8492L15.069 15.7698V1.5L11.8103 4.2619V16.6905L4.82759 18.0714L3.89655 21.754L11.8103 19.9127V24.0556L3.43103 25.8968L2.5 28.6587L10.4138 27.2778C12.6483 26.9095 13.2069 25.8968 13.2069 25.8968L15.069 23.5952V18.9921L18.3276 18.5317V24.5159L28.1034 22.6746Z" stroke="#003741"/>
</svg>
