<svg width="32" height="32" viewBox="0 0 32 32" fill="none" xmlns="http://www.w3.org/2000/svg">
<g clip-path="url(#clip0_69_188)">
<path d="M17.7247 0C18.1951 0 18.6159 0.2928 18.7743 0.7312L19.9039 3.8624C20.3081 3.96267 20.6569 4.06507 20.9503 4.1696C21.2703 4.28373 21.6863 4.45973 22.1983 4.6976L24.8287 3.3056C25.0432 3.19133 25.2892 3.14998 25.5293 3.18779C25.7695 3.2256 25.9908 3.34052 26.1599 3.5152L28.4735 5.9072C28.7807 6.2256 28.8671 6.6912 28.6943 7.0976L27.4607 9.9888C27.6644 10.3643 27.8287 10.6864 27.9535 10.9552C28.0879 11.2464 28.2543 11.6517 28.4527 12.1712L31.3279 13.4032C31.7599 13.5872 32.0271 14.0192 31.9983 14.4816L31.7871 17.8016C31.7726 18.0173 31.6952 18.224 31.5643 18.3961C31.4335 18.5681 31.255 18.698 31.0511 18.7696L28.3279 19.7376C28.25 20.1131 28.1679 20.4363 28.0815 20.7072C27.9416 21.1271 27.7825 21.5403 27.6047 21.9456L28.9727 24.9696C29.07 25.1819 29.0964 25.4199 29.048 25.6484C28.9996 25.8769 28.8789 26.0838 28.7039 26.2384L26.1023 28.5616C25.9313 28.7146 25.7174 28.8113 25.4896 28.8388C25.2618 28.8663 25.0311 28.8231 24.8287 28.7152L22.1471 27.2944C21.7279 27.5174 21.2951 27.7135 20.8511 27.8816L19.6799 28.32L18.6399 31.2C18.562 31.4104 18.4228 31.5926 18.2402 31.723C18.0577 31.8534 17.8401 31.9259 17.6159 31.9312L14.5759 32C14.3455 32.0053 14.1192 31.9395 13.9276 31.8116C13.7361 31.6836 13.5887 31.4996 13.5055 31.2848L12.2799 28.0416C11.8618 27.8984 11.4478 27.7437 11.0383 27.5776C10.7034 27.4327 10.3736 27.2763 10.0495 27.1088L7.00946 28.408C6.80922 28.4939 6.5883 28.5195 6.37373 28.4817C6.15917 28.4439 5.96029 28.3443 5.80146 28.1952L3.55186 26.0848C3.38374 25.9288 3.26924 25.7236 3.2247 25.4986C3.18016 25.2736 3.20787 25.0403 3.30386 24.832L4.61106 21.984C4.43782 21.6464 4.27665 21.3027 4.12786 20.9536C3.95453 20.5261 3.79446 20.0934 3.64786 19.656L0.783856 18.784C0.551057 18.7136 0.348007 18.5684 0.206239 18.3708C0.0644718 18.1732 -0.0080785 17.9343 -0.000144471 17.6912L0.111856 14.6176C0.120176 14.4171 0.182963 14.2227 0.293468 14.0553C0.403974 13.8878 0.558022 13.7537 0.739056 13.6672L3.74386 12.224C3.88252 11.7141 4.00519 11.3152 4.11186 11.0272C4.26282 10.6404 4.43044 10.2603 4.61426 9.888L3.31186 7.136C3.21227 6.92717 3.18184 6.69203 3.225 6.46472C3.26816 6.23742 3.38265 6.0298 3.55186 5.872L5.79826 3.7504C5.95552 3.60152 6.15257 3.50143 6.36555 3.46224C6.57853 3.42306 6.7983 3.44645 6.99826 3.5296L10.0351 4.784C10.37 4.56107 10.6751 4.3776 10.9503 4.2336C11.2777 4.0608 11.7172 3.87627 12.2687 3.68L13.3247 0.7344C13.4035 0.519347 13.5464 0.333644 13.7341 0.202327C13.9218 0.0710104 14.1452 0.000394575 14.3743 0L17.7247 0ZM16.9407 2.2032H15.1599L14.1919 4.9136C14.1342 5.07123 14.0419 5.2139 13.9217 5.33104C13.8015 5.44819 13.6565 5.53683 13.4975 5.5904C12.7999 5.8224 12.2959 6.0224 12.0015 6.1776C11.6879 6.34293 11.2932 6.5936 10.8175 6.9296C10.6626 7.0388 10.4826 7.10694 10.2943 7.12765C10.106 7.14835 9.9155 7.12095 9.74066 7.048L6.81266 5.84L5.67186 6.9184L6.86066 9.4304C6.93183 9.57986 6.96796 9.74358 6.96629 9.90911C6.96463 10.0746 6.92522 10.2376 6.85106 10.3856C6.53106 11.0272 6.31506 11.5008 6.20626 11.792C6.0387 12.2765 5.89454 12.7688 5.77426 13.2672C5.73406 13.4231 5.66024 13.5684 5.55797 13.6927C5.4557 13.8171 5.32747 13.9176 5.18226 13.9872L2.31826 15.3616L2.26066 16.9296L4.85266 17.7168C5.19666 17.8208 5.46866 18.0848 5.58226 18.424C5.83932 19.1941 6.04199 19.7573 6.19026 20.1136C6.3853 20.5644 6.60099 21.0059 6.83666 21.4368C6.91638 21.585 6.96062 21.7498 6.9659 21.918C6.97117 22.0863 6.93734 22.2534 6.86706 22.4064L5.66546 25.0272L6.80306 26.096L9.65426 24.8768C9.80775 24.8108 9.97407 24.78 10.141 24.7867C10.3079 24.7933 10.4713 24.8372 10.6191 24.9152C11.2057 25.2224 11.6372 25.4347 11.9135 25.552C12.1935 25.6688 12.7295 25.864 13.5071 26.1296C13.6611 26.183 13.8015 26.2694 13.9187 26.3827C14.0359 26.496 14.1269 26.6335 14.1855 26.7856L15.3183 29.7792L16.7999 29.7472L17.7551 27.1008C17.8104 26.9502 17.8975 26.8133 18.0104 26.6993C18.1233 26.5853 18.2594 26.4968 18.4095 26.44L20.0687 25.8192C20.4889 25.6645 20.9961 25.4192 21.5903 25.0832C21.7544 24.9905 21.9393 24.9407 22.1278 24.9384C22.3163 24.9362 22.5024 24.9816 22.6687 25.0704L25.1919 26.4064L26.6111 25.1408L25.3695 22.4C25.3056 22.2593 25.2724 22.1067 25.2721 21.9522C25.2719 21.7977 25.3045 21.6449 25.3679 21.504C25.6591 20.8528 25.8559 20.3616 25.9551 20.048C26.0543 19.7387 26.1529 19.2987 26.2511 18.728C26.2846 18.5345 26.3692 18.3535 26.496 18.2036C26.6229 18.0537 26.7874 17.9403 26.9727 17.8752L29.6095 16.9392L29.7247 15.1152L27.1327 14.0048C26.9951 13.9454 26.8708 13.859 26.7671 13.7508C26.6635 13.6425 26.5827 13.5145 26.5295 13.3744C26.345 12.8642 26.1433 12.3605 25.9247 11.864C25.718 11.4316 25.4939 11.0077 25.2527 10.5936C25.1689 10.4474 25.1202 10.2837 25.1105 10.1154C25.1007 9.94713 25.1303 9.77891 25.1967 9.624L26.3567 6.904L25.1343 5.64L22.7535 6.9008C22.5981 6.9836 22.4255 7.02864 22.2495 7.03225C22.0736 7.03586 21.8992 6.99796 21.7407 6.9216C21.2356 6.6697 20.7188 6.44224 20.1919 6.24C19.743 6.08846 19.285 5.96554 18.8207 5.872C18.6368 5.83211 18.466 5.74656 18.3239 5.62324C18.1819 5.49992 18.0732 5.34281 18.0079 5.1664L16.9407 2.2032ZM16.0383 9.0256C19.9343 9.0256 23.0943 12.1504 23.0943 16.0032C23.0943 19.856 19.9343 22.9792 16.0383 22.9792C12.1423 22.9792 8.98226 19.856 8.98226 16.0032C8.98226 12.1504 12.1407 9.0272 16.0383 9.0272M16.0383 11.232C13.3711 11.232 11.2095 13.368 11.2095 16.0048C11.2095 18.6416 13.3711 20.7792 16.0383 20.7792C18.7055 20.7792 20.8655 18.6416 20.8655 16.0048C20.8655 13.368 18.7055 11.232 16.0383 11.232Z" fill="#003741"/>
</g>
<defs>
<clipPath id="clip0_69_188">
<rect width="32" height="32" fill="white"/>
</clipPath>
</defs>
</svg>
